<?xml version="1.0" standalone="no"?><!DOCTYPE svg PUBLIC "-//W3C//DTD SVG 1.1//EN" "http://www.w3.org/Graphics/SVG/1.1/DTD/svg11.dtd"><svg t="1684039242888" class="icon" viewBox="0 0 1024 1024" version="1.1" xmlns="http://www.w3.org/2000/svg" p-id="15249" xmlns:xlink="http://www.w3.org/1999/xlink" width="200" height="200"><path d="M0 0m365.714286 0l292.571428 0q365.714286 0 365.714286 365.714286l0 292.571428q0 365.714286-365.714286 365.714286l-292.571428 0q-365.714286 0-365.714286-365.714286l0-292.571428q0-365.714286 365.714286-365.714286Z" fill="#6FBAFF" opacity=".1" p-id="15250"></path><path d="M512 219.428571c141.769143 0 256.310857 78.628571 256.310857 258.377143S555.136 804.571429 512 804.571429s-255.689143-146.816-255.689143-326.765715S370.230857 219.428571 512 219.428571z" fill="#6FBAFF" p-id="15251"></path><path d="M512 475.428571m-109.714286 0a109.714286 109.714286 0 1 0 219.428572 0 109.714286 109.714286 0 1 0-219.428572 0Z" fill="#FFFFFF" p-id="15252"></path></svg>