<?xml version="1.0" standalone="no"?><!DOCTYPE svg PUBLIC "-//W3C//DTD SVG 1.1//EN" "http://www.w3.org/Graphics/SVG/1.1/DTD/svg11.dtd"><svg t="1684039325594" class="icon" viewBox="0 0 1024 1024" version="1.1" xmlns="http://www.w3.org/2000/svg" p-id="24940" width="64" height="64" xmlns:xlink="http://www.w3.org/1999/xlink"><path d="M741.302857 623.177143l-85.028571-24.137143c-12.982857-3.657143-27.245714 0-36.937143 9.508571l-53.76 52.662858c-5.668571 5.485714-14.262857 6.765714-21.211429 3.291428-78.445714-40.228571-143.908571-105.691429-184.32-184.32-3.657143-6.948571-2.377143-15.542857 3.108572-21.028571l52.114285-53.76c9.508571-9.691429 13.165714-23.954286 9.325715-37.12l-24.137143-85.577143c-2.925714-10.24-12.251429-17.371429-22.857143-17.371429h-103.497143a9.398857 9.398857 0 0 0-9.508571 9.508572v9.142857c0 64.182857 12.434286 126.354286 37.12 184.868571a475.977143 475.977143 0 0 0 101.302857 151.04c43.337143 43.52 93.988571 77.897143 150.308571 101.851429a469.211429 469.211429 0 0 0 183.954286 37.302857c3.84 0 7.68 0 11.702857-0.182857 5.302857-0.182857 9.325714-4.205714 9.325714-9.508572l-0.182857-102.948571c0.548571-10.971429-6.582857-20.297143-16.822857-23.222857z" fill="#5bb3e0" p-id="24941"></path><path d="M512 9.142857C234.24 9.142857 9.142857 234.24 9.142857 512S234.24 1014.857143 512 1014.857143 1014.857143 789.76 1014.857143 512 789.76 9.142857 512 9.142857z m238.628571 786.102857c-4.205714 0.182857-8.411429 0.182857-12.617142 0.182857-68.754286 0-135.497143-13.531429-198.217143-40.228571a507.282286 507.282286 0 0 1-161.828572-109.714286 510.994286 510.994286 0 0 1-149.211428-361.691428v-8.594286a45.842286 45.842286 0 0 1 45.897143-46.628571h103.497142c26.88 0 50.651429 18.102857 57.965715 44.068571l24.137143 85.577143c7.131429 25.6 0.182857 53.394286-18.285715 72.594286l-42.788571 44.251428c35.291429 62.902857 88.137143 115.748571 150.857143 150.857143l44.251428-43.337143a75.062857 75.062857 0 0 1 72.411429-18.468571l85.028571 24.137143c25.782857 7.314286 43.885714 31.268571 43.885715 58.148571l0.182857 102.948571a46.262857 46.262857 0 0 1-45.165715 45.897143z" fill="#5bb3e0" p-id="24942"></path></svg>