<?xml version="1.0" standalone="no"?><!DOCTYPE svg PUBLIC "-//W3C//DTD SVG 1.1//EN" "http://www.w3.org/Graphics/SVG/1.1/DTD/svg11.dtd"><svg t="1684038884249" class="icon" viewBox="0 0 1024 1024" version="1.1" xmlns="http://www.w3.org/2000/svg" p-id="1715" xmlns:xlink="http://www.w3.org/1999/xlink" width="200" height="200"><path d="M511.672608 512.327392m-511.672608 0a511.672608 511.672608 0 1 0 1023.345216 0 511.672608 511.672608 0 1 0-1023.345216 0Z" fill="#48B134" p-id="1716"></path><path d="M176.768183 848.180666l60.228375-178.02678s-123.122937-187.789728 26.571688-383.542729c0 0 144.385776-178.924657 381.770499-93.006789 0 0 231.18976 89.458408 201.955806 354.300934 0 0-23.031149 212.577424-246.245873 273.695834 0 0-104.569413 36.30719-242.697493-32.766651l-181.583002 59.346181z" fill="#FFFFFF" p-id="1717"></path><path d="M263.580008 761.157114l35.871975-100.311356s-106.953298-125.557793-17.934027-298.283566c0 0 92.340242-159.44189 286.98756-134.858079 0 0 240.709615 43.84701 224.767386 305.145075 0 0-15.95007 143.49574-150.588581 211.69523 0 0-126.659555 79.718984-271.927526-18.600574l-107.176787 35.21327z" fill="#48B134" p-id="1718"></path><path d="M465.433872 420.35179l-29.233954-68.20341h-37.201147s-34.538881 18.604494-38.969456 75.288409c0 0 6.194963 70.861755 75.284488 134.638511 0 0 111.619125 113.379592 208.162532 85.917869 0 0 52.261182-15.938308 42.521758-69.089525l-69.987403-38.969456s-8.857229-4.434496-19.486688 7.084999l-27.453882 31.884457s-22.141113 14.166078-77.06456-38.087262c0 0-61.11449-57.573951-46.944492-75.288409 0-0.003921 31.821723-18.455502 20.372804-45.176183z" fill="#FFFFFF" p-id="1719"></path></svg>